<?xml version="1.0" encoding="iso-8859-1"?>
<!-- Generator: Adobe Illustrator 19.1.0, SVG Export Plug-In . SVG Version: 6.00 Build 0)  -->
<svg version="1.1" id="Layer_1" xmlns="http://www.w3.org/2000/svg" xmlns:xlink="http://www.w3.org/1999/xlink" x="0px" y="0px"
	 viewBox="0 0 20 20" style="enable-background:new 0 0 20 20;" xml:space="preserve">
<path d="M19.821,17.5c-6.548,0-13.095,0-19.643,0c0-5,0-10,0-15c6.548,0,13.095,0,19.643,0C19.821,7.5,19.821,12.5,19.821,17.5z
	 M17.594,3.986c-5.158,0-10.072,0-15.124,0c2.343,2.342,4.58,4.559,6.793,6.801c0.609,0.617,1.06,0.401,1.57-0.115
	c1.776-1.797,3.567-3.579,5.358-5.362C16.603,4.899,17.037,4.511,17.594,3.986z M7.703,11.124c-1.7,1.7-3.34,3.339-4.912,4.91
	c4.754,0,9.66,0,14.376,0c-1.563-1.61-3.195-3.291-4.828-4.973C10.049,13.07,10.013,13.069,7.703,11.124z M18.487,14.82
	c0-3.23,0-6.508,0-9.745c-1.665,1.664-3.317,3.315-4.875,4.873C15.212,11.546,16.861,13.194,18.487,14.82z M1.492,4.963
	c0,3.375,0,6.669,0,9.788c1.622-1.582,3.302-3.222,4.951-4.83C4.841,8.317,3.208,6.682,1.492,4.963z"/>
</svg>
